# Blender v2.74 (sub 0) OBJ File: ''
# www.blender.org
mtllib level-test.mtl
o Box1
v 1.286900 0.998474 -2.267925
v 0.346799 0.998149 -1.608365
v 1.286900 1.007809 -1.607259
v 1.286900 -0.002500 -1.603938
v 1.286900 -0.002500 -5.177838
v 1.286900 0.997500 -5.177838
v -1.286900 0.997500 -5.177838
v -1.286900 -0.002500 -5.177838
v -1.286900 -0.002500 -1.603938
v -1.286900 0.997500 -1.603938
v -1.286900 0.997500 -5.177838
v -1.286900 0.997500 -1.603938
v 1.286900 0.997500 -5.177838
v -1.286900 -0.002500 -1.603938
v -1.286900 -0.002500 -5.177838
v 1.286900 -0.002500 -5.177838
v 1.286900 -0.002500 -1.603938
v -1.286900 0.997500 -1.603938
v -1.286900 -0.002500 -1.603938
v 1.286900 -0.002500 -1.603938
v 1.286900 0.997500 -5.177838
v 1.286900 -0.002500 -5.177838
v -1.286900 -0.002500 -5.177838
v -1.286900 0.997500 -5.177838
v -1.286900 0.997500 -1.603938
v -1.286900 -0.002500 -1.603938
v 1.286900 -0.002500 -1.603938
v 1.286900 -0.002500 -3.885066
v 1.286900 0.997500 -3.885066
v -1.286900 -0.002500 -3.885066
v -1.286900 0.997500 -3.885066
v -1.286900 0.997500 -3.885066
v 1.286900 0.997500 -3.885066
v -1.286900 -0.002500 -3.885066
v 1.286900 -0.002500 -3.885066
v 1.286900 -0.002500 -2.261283
v -1.286900 -0.002500 -2.261283
v 1.286900 -0.002500 -2.261283
v -1.286900 -0.002500 -2.261283
v -1.286900 0.997500 -2.261283
v -1.286900 0.997500 -2.261283
v -0.326400 0.997500 -3.885066
v -0.326400 0.997500 -5.177838
v -0.326400 -0.002500 -2.261283
v -0.326400 -0.002500 -1.603938
v -0.326400 -0.002500 -1.603938
v -0.326400 0.997500 -1.603938
v -0.326400 -0.002500 -5.177838
v -0.326400 0.997500 -5.177838
v -0.326400 -0.002500 -1.603938
v -0.326400 0.997500 -1.603938
v -0.326400 0.997500 -2.261283
v -0.326400 -0.002500 -5.177838
v -0.326400 -0.002500 -3.885066
v -0.326400 0.997500 -1.603938
v 0.346799 -0.002500 -5.177838
v 0.346799 0.997500 -5.177838
v 0.346799 0.997500 -3.885066
v 0.346799 0.997500 -5.177838
v 0.346799 -0.002500 -2.261283
v 0.346799 -0.002500 -1.603938
v 0.346799 -0.002500 -1.603938
v 0.346799 -0.002500 -1.603938
v 0.346799 0.999448 -2.274565
v 0.346799 -0.002500 -5.177838
v 0.346799 -0.002500 -3.885066
v -0.326400 -0.002500 0.418755
v 0.346799 -0.002500 0.418755
v 0.346799 0.997500 0.418755
v -0.326400 0.997500 0.418755
v -0.326400 -0.002500 1.715919
v 0.346799 -0.002500 1.715919
v 0.346799 0.997500 1.715919
v -0.326400 0.997500 1.715919
v 1.597089 0.997500 0.418755
v 1.597089 -0.002500 0.418755
v 1.597089 0.997500 1.715919
v 1.597089 -0.002500 1.715919
v -1.658968 -0.002500 0.418755
v -1.658968 0.997500 0.418755
v -1.658968 -0.002500 1.715919
v -1.658968 0.997500 1.715919
v -0.326400 -0.002500 4.325866
v 0.346799 -0.002500 4.325866
v 0.346799 0.997500 4.325866
v -0.326400 0.997500 4.325866
v 1.597089 -0.002500 4.325866
v 1.597089 0.997500 4.325866
v -1.658968 0.997500 4.325866
v -1.658968 -0.002500 4.325866
v -0.326400 -0.002500 5.548502
v 0.346799 -0.002500 5.548502
v 0.346799 0.997500 5.548502
v -0.326400 0.997500 5.548502
v 1.597089 -0.002500 5.548502
v 1.597089 0.997500 5.548502
v -1.658968 0.997500 5.548502
v -1.658968 -0.002500 5.548502
v 0.346799 -1.099456 1.715919
v -0.326400 -1.099456 1.715919
v 0.346799 -1.099456 4.325866
v -0.326400 -1.099456 4.325866
v 1.597089 -1.099456 1.715919
v 1.597089 -1.099456 4.325866
v -1.658968 -1.099456 1.715919
v -1.658968 -1.099456 4.325866
vt 0.626817 1.000000
vt 0.626817 0.000000
vt 1.000000 0.000000
vt 1.000000 1.000000
vt 0.365258 1.000000
vt 0.000000 1.000000
vt 0.000000 0.000000
vt 0.365258 0.000000
vt 0.373183 1.855628
vt 0.373183 2.039557
vt 0.000000 2.039557
vt 0.000000 1.855628
vt 0.373183 2.493902
vt 0.373183 2.855628
vt 0.000000 2.855628
vt 0.000000 2.493902
vt 0.634742 1.855628
vt 1.000000 1.855628
vt 1.000000 2.039557
vt 0.634742 2.039557
vt 0.634742 2.493902
vt 1.000000 2.493902
vt 1.000000 2.855628
vt 0.634742 2.855628
vt 1.120518 0.926711
vt 1.120518 1.289665
vt 0.634742 1.289665
vt 0.634742 0.926711
vt -0.144560 1.289665
vt -0.144560 0.926711
vt 0.373183 0.926711
vt 0.373183 1.289665
vt 0.634742 -0.145671
vt 1.120518 -0.145671
vt 1.120518 0.196431
vt 0.634742 0.196431
vt -0.144560 -0.145671
vt 0.373183 -0.145671
vt 0.373183 0.196431
vt -0.144560 0.196431
vt -1.039557 1.000000
vt -1.039557 0.000000
vt -0.855628 0.000000
vt -0.855628 1.000000
vt 2.493902 1.000000
vt 2.493902 0.000000
vt 2.855628 0.000000
vt 2.855628 1.000000
vt 0.634742 1.000000
vt 0.634742 0.000000
vt -1.493902 1.000000
vt -1.855628 1.000000
vt -1.855628 0.000000
vt -1.493902 0.000000
vt 2.039557 1.000000
vt 2.039557 0.000000
vt 1.855628 1.000000
vt 1.855628 0.000000
vt 0.373183 1.000000
vt 0.373183 0.000000
vt -0.289665 0.000000
vt -0.289665 1.000000
vt 1.289665 1.000000
vt 1.289665 0.000000
vt 0.073289 0.000000
vt 0.073289 1.000000
vt 0.926711 1.000000
vt 0.926711 0.000000
vt 1.120518 0.000000
vt 1.120518 1.000000
vt -0.120518 1.000000
vt -0.120518 0.000000
vt -0.144560 1.000000
vt -0.144560 0.000000
vt 1.144560 0.000000
vt 1.144560 1.000000
vt 0.803569 0.000000
vt 0.803569 1.000000
vt 0.196431 1.000000
vt 0.196431 0.000000
vt 1.145671 0.000000
vt 1.145671 1.000000
vt -0.145671 1.000000
vt -0.145671 0.000000
vt 0.626817 2.855628
vt 0.626817 2.493902
vt 0.626817 2.039557
vt 0.626817 1.855628
vt 0.365258 2.855628
vt 0.365258 2.493902
vt 0.365258 2.043274
vt 0.365258 1.859344
vt 0.000000 2.043274
vt 0.000000 1.859344
vt 0.365258 1.289665
vt 0.626817 1.289665
vt 0.365258 1.855628
vt 0.365258 0.926711
vt 0.626817 0.926711
vt -0.120518 1.289665
vt -0.120518 0.926711
vt 1.144560 0.926711
vt 1.144560 1.289665
vt 0.365258 0.196431
vt 0.626817 0.196431
vt -0.120518 0.196431
vt 1.144560 0.196431
vt 0.365258 -0.145671
vt 0.626817 -0.145671
vt -0.120518 -0.145671
vt 1.144560 -0.145671
vt 0.373183 -1.096956
vt 0.634742 -1.096956
vt 0.365258 -1.096956
vt 0.626817 -1.096956
vt 1.120518 -1.096956
vt 0.073289 -1.096956
vt 0.803569 -1.096956
vt -0.120518 -1.096956
vt -0.144560 -1.096956
vt 1.144560 -1.096956
vt 0.196431 -1.096956
vt 0.926711 -1.096956
vn 0.000000 0.000000 -1.000000
vn 0.000200 -0.002700 -1.000000
vn 0.000000 1.000000 0.000000
vn -1.000000 -0.000000 0.000000
vn 1.000000 0.000000 0.000000
vn 0.000000 0.000000 1.000000
vn 0.000000 -1.000000 0.000000
vn -0.000600 -1.000000 -0.000400
vn -0.001300 -1.000000 0.000200
vn -0.001500 -1.000000 0.001300
vn -0.000400 -1.000000 -0.001000
vn -0.003000 -1.000000 -0.004200
vn -0.005100 -1.000000 -0.006500
vn 0.000400 -1.000000 -0.001200
vn -0.003200 -1.000000 -0.008900
vn -0.007300 -0.999800 -0.015800
vn -0.000300 -1.000000 0.000100
vn -0.000700 -1.000000 0.000400
usemtl (null)
s 1
f 51/1/1 50/2/1 26/3/1 25/4/1
f 2/5/2 3/6/2 27/7/2 63/8/2
usemtl floor_1
f 45/9/3 44/10/3 37/11/3 14/12/3
f 54/13/3 53/14/3 15/15/3 34/16/3
f 44/10/3 54/13/3 34/16/3 37/11/3
f 61/17/3 17/18/3 38/19/3 60/20/3
f 66/21/3 35/22/3 16/23/3 65/24/3
f 60/20/3 38/19/3 35/22/3 66/21/3
f 78/25/3 76/26/3 68/27/3 72/28/3
f 79/29/3 81/30/3 71/31/3 67/32/3
f 92/33/3 95/34/3 87/35/3 84/36/3
f 98/37/3 91/38/3 83/39/3 90/40/3
usemtl wall
f 1/41/4 36/42/4 4/43/4 3/44/4
f 31/45/5 30/46/5 8/47/5 7/48/5
f 47/1/1 46/2/1 19/3/1 18/4/1
f 57/49/6 56/50/6 22/3/6 21/4/6
f 29/51/4 6/52/4 5/53/4 28/54/4
f 31/45/5 40/55/5 39/56/5 30/46/5
f 1/41/4 29/51/4 28/54/4 36/42/4
f 40/55/5 10/57/5 9/58/5 39/56/5
f 94/1/1 93/5/1 92/8/1 91/2/1
f 49/59/6 24/6/6 23/7/6 48/60/6
f 57/49/6 49/59/6 48/60/6 56/50/6
f 2/5/2 3/6/2 20/7/2 62/8/2
f 68/61/4 69/62/4 2/44/4 62/43/4
f 70/63/5 67/64/5 46/58/5 47/57/5
f 78/65/4 77/66/4 75/62/4 76/61/4
f 82/67/5 81/68/5 79/64/5 80/63/5
f 76/69/6 75/70/6 69/49/6 68/50/6
f 96/71/1 95/72/1 92/8/1 93/5/1
f 80/73/6 79/74/6 67/60/6 70/59/6
f 98/75/1 97/76/1 94/1/1 91/2/1
f 87/77/4 88/78/4 77/66/4 78/65/4
f 89/79/5 90/80/5 81/68/5 82/67/5
f 95/81/4 96/82/4 88/78/4 87/77/4
f 97/83/5 98/84/5 90/80/5 89/79/5
usemtl top
f 43/85/7 42/86/8 32/22/7 11/23/7
f 42/86/8 52/87/9 41/19/7 32/22/7
f 52/87/9 55/88/10 12/18/7 41/19/7
f 43/85/7 59/89/7 58/90/11 42/86/8
f 42/86/8 58/90/11 64/91/12 52/87/9
f 52/87/9 64/91/12 2/92/13 55/88/10
f 59/89/7 13/15/7 33/16/14 58/90/11
f 58/90/11 33/16/14 1/93/15 64/91/12
f 64/91/12 1/93/15 3/94/16 2/92/13
f 69/95/17 70/96/17 47/88/18 2/97/18
f 73/98/7 74/99/7 70/96/17 69/95/17
f 75/100/7 77/101/7 73/98/7 69/95/17
f 82/102/7 80/103/7 70/96/17 74/99/7
f 85/104/7 86/105/7 74/99/7 73/98/7
f 88/106/7 85/104/7 73/98/7 77/101/7
f 86/105/7 89/107/7 82/102/7 74/99/7
f 93/108/7 94/109/7 86/105/7 85/104/7
f 96/110/7 93/108/7 85/104/7 88/106/7
f 94/109/7 97/111/7 89/107/7 86/105/7
usemtl floor_2
f 45/9/3 61/17/3 60/20/3 44/10/3
f 54/13/3 66/21/3 65/24/3 53/14/3
f 44/10/3 60/20/3 66/21/3 54/13/3
f 67/32/3 68/27/3 62/17/3 46/9/3
f 71/31/3 72/28/3 68/27/3 67/32/3
f 91/38/3 92/33/3 84/36/3 83/39/3
usemtl pool
f 100/112/6 99/113/6 72/50/6 71/60/6
f 101/114/1 102/115/1 83/2/1 84/8/1
f 99/113/6 103/116/6 78/69/6 72/50/6
f 103/117/4 104/118/4 87/77/4 78/65/4
f 104/119/1 101/114/1 84/8/1 87/72/1
f 105/120/6 100/112/6 71/60/6 81/74/6
f 102/115/1 106/121/1 90/75/1 83/2/1
f 106/122/5 105/123/5 81/68/5 90/80/5
